<svg width="72" height="17" viewBox="0 0 72 17" fill="none" xmlns="http://www.w3.org/2000/svg">
<path d="M2.27878 -8.54741e-06H6.46416L12.9515 10.8122L14.4629 -8.54741e-06H18.6483L16.3696 16.2765H12.1842L5.69684 5.46424L4.18545 16.2765H6.80938e-05L2.27878 -8.54741e-06ZM19.6641 4.4644L20.2919 -8.54741e-06H24.4773L24.3378 1.09284L19.6641 4.4644ZM19.5246 5.4875L24.175 2.11594L22.1986 16.2765H18.0132L19.5246 5.4875ZM24.9941 -8.54741e-06H40.108L37.806 3.25529H34.1787L32.365 16.2765H28.1797L29.9933 3.25529H27.2961L24.9941 -8.54741e-06ZM40.6048 -8.54741e-06H50.0917C51.5799 -8.54741e-06 52.696 0.356524 53.44 1.06959C54.1996 1.76715 54.5794 2.7515 54.5794 4.02261C54.5794 4.9992 54.4089 5.88278 54.0678 6.67336C53.7268 7.44843 53.254 8.11499 52.6495 8.67304C52.0449 9.23109 51.3318 9.65738 50.5103 9.95191C49.6887 10.2464 48.7973 10.3937 47.8363 10.3937H43.3253L42.5115 16.2765H38.3261L40.6048 -8.54741e-06ZM43.7904 7.1384H48.1153C48.8128 7.1384 49.3321 6.93688 49.6732 6.53384C50.0142 6.13081 50.2235 5.66576 50.301 5.13871C50.332 4.9372 50.3397 4.72793 50.3242 4.51091C50.3087 4.29389 50.2467 4.09237 50.1382 3.90635C50.0452 3.72033 49.8979 3.56532 49.6964 3.44131C49.5104 3.3173 49.2469 3.25529 48.9059 3.25529H44.3252L43.7904 7.1384ZM50.301 10.975L53.8586 16.2765H48.9989L45.4878 10.975H50.301ZM55.189 4.18538C55.282 3.54982 55.4603 2.97627 55.7238 2.46472C56.0028 1.95317 56.3516 1.51913 56.7702 1.1626C57.1887 0.790565 57.6692 0.503788 58.2118 0.30227C58.7543 0.100751 59.3356 -8.54741e-06 59.9557 -8.54741e-06H68.2567C68.8923 -8.54741e-06 69.4503 0.100751 69.9309 0.30227C70.4114 0.503788 70.8067 0.790565 71.1167 1.1626C71.4423 1.51913 71.667 1.95317 71.791 2.46472C71.9306 2.97627 71.9538 3.54982 71.8608 4.18538L70.7447 12.0911C70.6517 12.7112 70.4657 13.2847 70.1866 13.8118C69.9231 14.3233 69.5821 14.7651 69.1636 15.1371C68.745 15.4937 68.2645 15.7727 67.7219 15.9742C67.1949 16.1757 66.6136 16.2765 65.978 16.2765H57.677C57.0569 16.2765 56.4989 16.1757 56.0028 15.9742C55.5223 15.7727 55.1193 15.4937 54.7937 15.1371C54.4837 14.7651 54.2589 14.3233 54.1194 13.8118C53.9954 13.2847 53.9799 12.7112 54.0729 12.0911L55.189 4.18538ZM58.4908 10.51C58.3823 11.2695 58.4908 11.8818 58.8164 12.3469C59.1574 12.7964 59.6689 13.0212 60.351 13.0212H64.1643C64.8464 13.0212 65.4277 12.7964 65.9083 12.3469C66.3888 11.8818 66.6833 11.2695 66.7918 10.51L67.4429 5.76652C67.5514 5.00695 67.4351 4.4024 67.0941 3.95286C66.7531 3.48781 66.2415 3.25529 65.5595 3.25529H61.7461C61.0641 3.25529 60.4828 3.48781 60.0022 3.95286C59.5372 4.4024 59.2504 5.00695 59.1419 5.76652L58.4908 10.51Z" fill="#E0E600"/>
</svg>
