<svg width="42" height="42" viewBox="0 0 42 42" fill="none" xmlns="http://www.w3.org/2000/svg">
<rect x="0.5" y="0.5" width="41" height="41" rx="20.5" stroke="#E0E600"/>
<path d="M15.9399 14C15.9397 14.5304 15.7287 15.039 15.3534 15.4139C14.9782 15.7888 14.4694 15.9993 13.9389 15.999C13.4085 15.9987 12.8999 15.7878 12.525 15.4125C12.1501 15.0372 11.9397 14.5284 11.9399 13.998C11.9402 13.4676 12.1512 12.959 12.5264 12.5841C12.9017 12.2092 13.4105 11.9987 13.9409 11.999C14.4714 11.9993 14.98 12.2102 15.3549 12.5855C15.7297 12.9607 15.9402 13.4696 15.9399 14ZM15.9999 17.48H11.9999V30H15.9999V17.48ZM22.3199 17.48H18.3399V30H22.2799V23.43C22.2799 19.77 27.0499 19.43 27.0499 23.43V30H30.9999V22.07C30.9999 15.9 23.9399 16.13 22.2799 19.16L22.3199 17.48Z" fill="#E0E600"/>
</svg>
