<svg width="42" height="42" viewBox="0 0 42 42" fill="none" xmlns="http://www.w3.org/2000/svg">
<rect x="0.5" y="0.5" width="41" height="41" rx="20.5" stroke="#E0E600"/>
<path d="M25.8201 29.768L12.7531 12.968C12.6842 12.8793 12.6416 12.7731 12.6301 12.6614C12.6186 12.5497 12.6387 12.437 12.6881 12.3361C12.7375 12.2353 12.8142 12.1503 12.9094 12.0909C13.0047 12.0315 13.1148 12 13.2271 12H15.7071C15.7984 12.0001 15.8884 12.0211 15.9704 12.0613C16.0524 12.1015 16.1241 12.1599 16.1801 12.232L29.2471 29.032C29.3159 29.1207 29.3585 29.2269 29.37 29.3386C29.3815 29.4503 29.3614 29.563 29.312 29.6639C29.2626 29.7647 29.186 29.8497 29.0907 29.9091C28.9954 29.9685 28.8854 30 28.7731 30H26.2931C26.2018 29.9999 26.1117 29.9789 26.0297 29.9387C25.9478 29.8985 25.8761 29.8401 25.8201 29.768Z" stroke="#E0E600" stroke-width="1.5"/>
<path d="M29 12L13 30" stroke="#E0E600" stroke-width="1.5" stroke-linecap="round"/>
</svg>
